<?xml version="1.0" encoding="UTF-8" standalone="no"?>
<svg
   xmlns="http://www.w3.org/2000/svg"
   version="1.1"
   viewBox="0 0 63.636719 142.0922"
   fill="currentColor"
   height="1em"
   width="1em">
  <defs
     id="defs9086">
    <clipPath
       id="clipPath9723"
       clipPathUnits="userSpaceOnUse">
      <path
         d="m 37.083999,123.676 c 0,0 33.130001,-21.77899 25.377,-67.090003 C 54.986999,23.643002 37.360999,12.846 35.423,8.6930001 33.300999,5.7400002 31.27,0.57299999 31.27,0.57299999 L 32.655001,92.207003 c 0,0.093 -2.861001,28.054007 4.43,31.470007" />
    </clipPath>
  </defs>
  <path
     id="path9074-8"
     clip-path="url(#clipPath9723)"
     d="m 34.128906,-0.55078125 -5.929687,1.16992187 1.384765,91.63476538 -0.002,-0.04687 c 0,0.0465 -0.720249,6.893469 -0.517578,14.570309 0.101336,3.83843 0.421086,7.81354 1.267578,11.28321 0.846493,3.46967 2.098579,6.82858 5.449219,8.39843 l 1.302734,-2.78125 1.6875,2.56446 c 0,0 34.742764,-23.26752 26.716797,-70.173831 l -0.01367,-0.08203 -0.01758,-0.08008 C 61.620766,38.99722 55.112661,27.606596 49.310547,19.982422 46.40949,16.170335 43.685413,13.29244 41.623047,11.160156 39.560681,9.0278723 38.152644,7.2779828 38.207031,7.3945312 L 38.085938,7.1328125 37.917969,6.9003906 C 36.244874,4.5720934 34.128906,-0.55078125 34.128906,-0.55078125 Z M 32.638672,9.9921875 c 0.01628,0.034885 0.04402,0.053522 0.06055,0.087891 0.08944,0.13052 0.137452,0.279525 0.228515,0.40625 z m 1.886719,2.7246095 c 0.767329,0.834849 1.658831,1.657359 2.68164,2.714844 2.021134,2.089653 4.532901,4.747321 7.214844,8.271484 5.355342,7.037099 11.383858,17.501417 15.023437,33.492187 6.644288,39.096368 -16.849494,58.489968 -22.044921,62.306638 -0.378218,-0.7057 -0.789577,-1.62765 -1.09961,-2.89843 -0.667664,-2.73668 -0.998961,-6.39783 -1.09375,-9.98829 -0.189578,-7.180906 0.519531,-14.361699 0.519531,-14.408199 v -0.02344 z"
     style="fill:currentColor;" />
  <path
     transform="matrix(0.2048,0,0,0.2048,-4.418143e-5,0.20329972)"
     d="M 151.78711,-0.00195313 C 150.88379,14.416992 150.43457,19.827148 136.91406,34.246094 116.18652,50.466797 8.946289,140.13477 0.38671875,322.625 -8.0229812,492.8827 123.55356,594.46996 141.23047,607.32422 c 12.66523,29.67954 11.45508,80.27734 11.45508,80.27734 l 18.47265,6.3125 c 0,0 -3.60351,-49.56543 1.80664,-72.99804 2.86616,-5.89315 5.49998,-11.94011 7.92969,-18.11719 C 169.4658,566.68505 165.67035,499.28732 170.31879,450.14213 L 152.70312,2.9492188 c -0.29309,-1.2569597 -0.59789,-2.26946564 -0.91601,-2.95117193 z"
     style="fill:currentColor;stroke:none;stroke-width:4.8828125" />
</svg>
