<?xml version="1.0" encoding="UTF-8" standalone="no"?>
<svg
   xmlns="http://www.w3.org/2000/svg"
   version="1.1"
   viewBox="0 0 432.071 445.383"
   fill="currentColor"
   height="1em"
   width="1em">
  <path
     transform="scale(0.75)"
     d="M 414.37695 0.001953125 C 394.14593 0.11152435 376.4631 2.8031143 363.25781 5.625 C 356.21499 7.1300057 350.45508 8.6775731 346.22461 9.9394531 C 345.59662 10.126771 345.23389 10.257747 344.67383 10.431641 C 331.61385 8.1409122 317.71812 6.6054909 302.39062 6.3574219 L 302.38477 6.3574219 C 273.25537 5.8796757 248.2183 12.939505 228.0625 24.744141 C 208.16021 17.833021 166.92919 5.9200674 123.43164 8.2832031 C 93.206175 9.9252935 60.114044 19.150575 35.666016 44.990234 C 11.217977 70.829902 -1.6819589 110.83547 1.0390625 165.23633 C 1.7897829 180.24887 6.0448522 204.73649 13.146484 236.43164 C 20.24812 268.12679 30.190523 305.24662 42.638672 339.10742 C 55.08682 372.96822 68.711257 403.3959 90 424.08789 C 100.64437 434.43388 115.27201 443.16159 132.5625 442.42773 C 144.67825 441.91352 155.60547 436.58486 165.06836 428.78906 C 169.67241 434.83328 174.57372 437.49415 179.04883 439.94336 C 184.69405 443.03297 190.18868 445.08387 195.875 446.50586 C 206.08865 449.06007 223.55583 452.48006 244.04102 448.97656 C 251.01888 447.78318 258.36325 445.54351 265.68945 442.2832 C 265.96861 450.46943 266.27905 458.44536 266.60352 466.53906 L 266.60352 466.54102 C 267.63116 492.14206 268.25409 515.80282 275.94531 536.5625 L 275.94531 536.56445 C 277.19105 539.9262 280.56988 557.40625 293.91992 572.82617 C 307.26998 588.24611 333.45689 597.87357 363.25977 591.48633 C 384.25569 586.98695 411.01282 578.86653 428.75586 553.60352 C 446.31401 528.60377 454.23396 492.78781 455.79102 434.66992 C 456.18423 431.54578 456.66825 428.84253 457.14844 426.35352 L 461.31836 426.7207 L 461.8418 426.74414 C 484.26572 427.76439 508.59223 424.55854 528.91602 415.11914 C 546.92268 406.76402 560.5424 398.33653 570.45508 383.38477 C 572.93324 379.64683 575.65384 375.1841 576.39258 367.46875 C 577.13132 359.7534 572.72667 347.69733 565.37305 342.10938 C 550.66577 330.93326 541.41037 335.17624 531.47852 337.22656 C 518.3718 339.93008 509.0267 340.70326 501.76367 340.8457 C 530.35175 292.68526 550.86554 241.55412 562.55469 196.29688 C 569.45799 169.56902 573.34802 144.95608 573.67969 123.41406 C 574.01135 101.87205 572.24944 82.796345 559.34375 66.306641 C 519.01888 14.780581 462.32136 0.53942674 418.45508 0.015625 C 417.08426 -0.00074380307 415.72569 -0.0053516231 414.37695 0.001953125 z M 413.19727 15.802734 C 454.69336 15.41727 507.73567 27.084228 545.79102 75.710938 C 554.34987 86.648611 556.89759 102.64261 556.59375 122.31445 C 556.28992 141.9863 552.64644 165.53583 545.99219 191.29883 C 533.07756 241.29984 508.77574 299.57109 474.43555 351.81641 C 475.29423 352.44954 476.50415 353.16448 478.24414 353.88477 C 485.39858 356.84643 501.76367 359.40242 534.38086 352.66992 C 542.58849 350.97478 548.61124 349.76386 554.85352 354.51367 C 557.97466 356.88857 559.70795 361.61984 559.37695 365.05664 C 559.04597 368.49344 557.70417 370.99926 556.13281 373.36914 C 549.84737 382.8487 537.39332 391.81866 521.45898 399.21875 L 521.45508 399.21875 C 507.31989 405.77895 487.09485 409.21844 469.11719 409.41602 C 460.12836 409.5148 451.81713 408.81858 444.76562 406.62695 C 444.67556 406.59894 444.58981 406.56364 444.5 406.53516 C 441.49636 434.42141 435.10833 485.83209 431.27539 508.04102 L 431.27539 508.04492 C 427.99208 527.08658 422.29898 542.20463 411.38867 553.54492 C 400.47786 564.88575 385.09652 571.70924 364.35352 576.15625 A 8.3108978 8.3108978 0 0 0 364.35156 576.1582 C 338.69467 581.65462 319.97434 575.73093 307.91211 565.57031 C 295.8499 555.40971 290.3305 541.9782 287.0293 533.72656 A 8.3108978 8.3108978 0 0 0 287.0293 533.72461 C 284.7484 528.01977 283.5527 520.66624 282.42188 510.82812 C 281.29097 500.99009 280.45011 488.9457 279.86719 475.36523 C 279.07161 456.83084 278.77799 435.42983 278.95898 413.17383 C 266.86906 424.08862 253.31499 429.61639 240.76367 431.76367 C 223.73423 434.67706 208.50791 431.821 199.42773 429.54883 C 195.19327 428.49011 190.71293 426.80942 186.55273 424.5332 C 182.39177 422.25656 178.36706 419.7045 175.66992 414.70312 C 174.32131 412.20248 173.49432 408.69609 174.2832 405.27344 C 175.07208 401.85077 177.2188 399.07702 179.66992 397.07812 C 184.57218 393.08038 191.04216 390.87887 200.83008 388.86133 A 8.3108978 8.3108978 0 0 1 200.83398 388.86133 C 218.59241 385.20482 224.78732 382.71118 228.5918 379.67969 C 231.89478 377.04779 234.9066 372.30185 241.8457 364.16797 C 241.82955 363.89265 241.81465 363.61735 241.79492 363.3418 C 230.03629 363.05143 218.85888 359.88988 208.85938 354.49805 C 202.74288 360.9817 184.16757 380.92455 163.14258 406.21875 A 8.3108978 8.3108978 0 0 0 163.14258 406.2207 C 153.45687 417.86473 142.70374 424.51147 131.38086 424.99219 C 120.05797 425.47291 109.79711 419.78774 101.10352 411.33789 C 83.716318 394.43817 69.830659 365.3862 57.755859 332.54102 C 45.681059 299.69583 35.861482 263.11792 28.880859 231.96289 C 21.900237 200.80785 17.761374 175.67011 17.15625 163.56836 C 14.580511 112.07247 26.607895 77.376014 47.275391 55.482422 C 67.942888 33.58883 96.290763 25.303868 123.90039 23.720703 C 130.8028 23.324911 137.69852 23.334976 144.48242 23.654297 C 183.90019 25.509714 219.14231 37.707533 230.11133 41.841797 C 248.4586 29.377526 272.12504 21.650872 301.63281 22.134766 C 316.60736 22.380275 330.48411 24.290835 343.31445 27.482422 C 343.45546 27.415106 343.58759 27.353083 343.67773 27.314453 C 343.91817 27.211392 344.09556 27.144719 344.29492 27.068359 C 345.0924 26.762945 346.18199 26.38344 347.74414 25.882812 C 350.86845 24.881569 355.70701 23.471413 361.94336 22.013672 C 374.41607 19.098188 392.44921 15.995468 413.19727 15.802734 z M 416.9707 32.417969 C 415.75663 32.407954 414.54987 32.408791 413.35156 32.419922 C 396.98001 32.572 382.29618 34.710202 371.1543 37.011719 C 402.0517 50.64076 425.27279 71.809774 441.6875 92.794922 C 455.18254 110.04745 464.24572 127.17204 469.70117 140.28125 C 472.42884 146.83586 474.25282 152.34739 475.29492 156.63477 C 475.81599 158.77846 476.16209 160.54906 476.26562 162.47461 C 476.31745 163.43738 476.38375 164.39462 475.98633 166.04688 C 475.97404 166.09796 475.95461 166.158 475.94141 166.21094 C 476.7311 188.03963 471.21853 202.63853 470.55664 223.39258 A 8.3108978 8.3108978 0 0 1 470.55664 223.39844 C 470.06973 238.38585 473.90208 255.98612 474.84961 275.20312 C 475.7409 293.27953 473.68014 313.13974 461.91016 332.64258 C 462.86935 333.83009 463.83242 335.00906 464.75781 336.1582 C 495.74652 287.31436 518.00246 233.20736 529.90039 187.14258 C 536.30531 162.34491 539.7016 139.8627 539.97656 122.06055 C 540.25152 104.25839 536.91694 91.338108 532.70312 85.953125 C 499.51064 43.540001 454.60693 32.728437 416.9707 32.417969 z M 298.50586 38.732422 C 269.26662 38.813564 248.30476 47.650653 232.41211 60.882812 C 216.0068 74.541823 205.02212 93.250325 197.78711 112.42188 C 189.37977 134.69983 186.17589 157.19206 184.95508 172.17578 C 185.10939 172.08896 185.24819 172.00294 185.4043 171.91602 C 194.23882 166.9968 205.84137 162.0223 218.25781 159.1582 C 224.46604 157.72616 230.91077 156.7864 237.32031 156.78906 C 243.72987 156.79218 250.10463 157.738 256.16992 160.08008 C 268.30054 164.76421 278.3173 175.85306 281.94531 192.62695 C 299.35862 273.15663 276.53061 303.11424 268.125 325.73242 L 268.125 325.72656 C 264.60333 335.21811 261.56437 343.64857 259.83008 350.69141 C 260.93003 350.40831 262.02571 350.21752 263.10742 350.12305 C 269.0437 349.60459 273.70146 351.62991 276.4668 352.77539 A 8.3108978 8.3108978 0 0 0 276.46875 352.77539 C 284.92284 356.27996 290.7612 363.64893 293.88281 372.07227 C 294.72804 374.35303 295.35365 376.7824 295.71094 379.27539 A 8.3108978 8.3108978 0 0 1 296.12695 382.21094 C 295.20851 415.04684 295.32788 448.026 296.4707 474.65039 C 297.0421 487.96259 297.87403 499.69513 298.93555 508.92969 C 299.99688 518.16257 301.5118 525.17765 302.46094 527.55273 L 302.46094 527.55469 C 305.62372 535.46011 310.25513 545.8156 318.61719 552.85938 C 326.97963 559.90352 338.95841 564.59954 360.86914 559.90625 C 379.86747 555.83326 391.58892 550.15494 399.41211 542.02344 C 407.23531 533.89192 411.907 522.5692 414.89844 505.21875 A 8.3108978 8.3108978 0 0 0 414.89844 505.2168 C 419.35635 479.38763 428.28684 404.78481 429.43555 390.04883 C 428.90408 379.23088 430.52077 370.9642 433.9707 364.64062 C 437.49325 358.18398 442.92414 354.26974 447.63867 352.14648 C 449.96158 351.10032 452.15486 350.37824 453.97461 349.84375 C 452.55517 347.78735 450.55482 345.10371 447.96094 341.82812 C 442.92922 335.47407 436.52551 326.83556 431.50195 314.65625 C 430.96563 313.35628 428.43564 308.61552 425.14258 302.70898 C 421.84951 296.80245 417.68614 289.35986 413.33789 281.01562 C 404.64137 264.32721 395.16497 244.08986 390.25195 224.39258 C 385.33895 204.6953 384.6188 184.33517 397.19727 169.94336 C 408.34855 157.18447 427.8445 151.89333 457.17969 154.86133 C 456.33063 152.24211 455.80648 150.14812 454.35742 146.66602 C 449.44425 134.85958 441.01933 118.91601 428.5957 103.0332 C 403.74844 71.267605 363.52194 39.771084 301.36133 38.751953 C 300.40079 38.736201 299.44906 38.729804 298.50586 38.732422 z M 134.23828 40.048828 C 131.10689 40.050549 127.97396 40.135411 124.85156 40.314453 C 99.872373 41.746788 76.258207 48.991342 59.361328 66.890625 C 42.464451 84.789908 31.325598 114.149 33.755859 162.73633 A 8.3108978 8.3108978 0 0 1 33.755859 162.74023 C 34.215401 171.93049 38.240273 197.71445 45.099609 228.32812 C 51.958945 258.94184 61.656389 294.97816 73.357422 326.80664 C 85.058455 358.63512 99.204355 386.31484 112.68945 399.42188 C 119.43201 405.97535 125.31885 408.61213 130.67383 408.38477 C 136.02822 408.15745 142.48358 405.06518 150.36133 395.5957 C 169.37457 372.72176 186.96252 353.57532 195.00586 344.9707 C 174.21774 327.15997 161.8832 298.32157 166.25781 267.03906 C 168.81096 248.78204 169.15314 231.69695 168.84961 218.18555 C 168.55077 204.88321 167.59932 195.78848 167.60352 190.3457 C 167.60352 190.3457 167.60031 190.09971 167.59961 190.07227 A 8.3108978 8.3108978 0 0 0 167.59961 190.07031 C 167.59964 190.0661 167.59958 190.0628 167.59961 190.05859 C 167.56008 188.50692 166.67798 147.77969 182.23633 106.55273 C 189.1979 88.105797 199.52611 69.404995 215.00977 54.232422 C 198.03946 48.709902 166.29857 40.031212 134.23828 40.048828 z M 441.98438 170.64258 C 424.49471 170.6893 414.75036 175.11493 409.71094 180.88086 C 402.69956 188.90301 402.04853 202.99993 406.38086 220.36914 C 410.71318 237.73837 419.65787 257.17747 428.07812 273.33594 C 432.28828 281.41518 436.35566 288.69169 439.6582 294.61523 C 442.96075 300.53877 445.39117 304.74067 446.86719 308.31836 C 448.24995 311.67079 449.74556 314.65294 451.29102 317.39648 C 457.84317 303.64385 458.9442 290.10055 458.25 276.02148 C 457.39353 258.65152 453.36022 240.86927 453.94531 222.85938 C 454.61982 201.72147 459.05798 188.16867 459.37891 171.81055 C 452.87848 171.00244 447.08942 170.62894 441.98438 170.64258 z M 237.23438 173.49023 C 232.42194 173.48806 227.22639 174.14616 221.99219 175.35352 C 211.5238 177.76826 201.03186 182.23602 193.48633 186.4375 C 189.71357 188.53825 186.6528 190.59911 184.85352 192.0625 C 184.54974 192.30957 184.55068 192.34445 184.32617 192.54883 C 184.45108 196.16379 185.17325 204.91994 185.46289 217.8125 C 185.77969 231.91442 185.43826 249.88149 182.7168 269.3418 C 176.80382 311.62493 207.47578 346.63257 243.53906 346.68164 C 245.63665 338.00453 249.10106 329.22717 252.54492 319.94531 A 8.3108978 8.3108978 0 0 1 252.54492 319.93945 C 262.59798 292.88831 282.35721 273.16828 265.70117 196.14062 C 262.98052 183.5619 257.59208 178.44743 250.18164 175.58594 C 246.47641 174.1552 242.04678 173.4929 237.23438 173.49023 z M 433.01562 178.54297 C 433.43745 178.5351 433.85258 178.53684 434.25977 178.54688 C 435.88851 178.58694 437.39434 178.77065 438.7168 179.08398 C 440.03925 179.39732 441.18639 179.83456 442.11523 180.47656 C 443.04406 181.11858 443.79968 182.04561 443.96094 183.20117 C 443.97014 183.26681 443.93998 183.32738 443.94531 183.39258 L 443.97461 183.39062 L 443.97461 183.39258 L 443.94531 183.39648 C 444.04499 184.52684 443.68797 185.59673 443.0918 186.74805 C 442.46076 187.96667 441.53863 189.25017 440.37305 190.47461 C 438.04187 192.92349 434.72444 195.16248 430.81055 195.70508 C 426.90099 196.24993 423.33287 194.94335 420.69727 193.1582 C 419.37947 192.26563 418.2836 191.25213 417.46289 190.23242 C 416.64217 189.21272 416.06403 188.22123 415.9082 187.11523 L 415.9082 187.11133 L 415.9082 187.10742 C 415.7512 185.95169 416.22463 184.85595 416.94336 183.98438 C 417.66209 183.1128 418.64721 182.37594 419.83398 181.71289 C 422.20753 180.38676 425.42351 179.36811 429.06055 178.86133 C 430.42447 178.67131 431.75016 178.56656 433.01562 178.54297 z M 239.61523 182.70117 C 240.93745 182.72649 242.31661 182.8353 243.73438 183.0332 C 247.51959 183.56003 250.87176 184.60429 253.45312 186.04688 C 254.74382 186.76814 255.8569 187.58185 256.73438 188.64844 C 257.61186 189.71501 258.29176 191.21374 258.06445 192.8457 C 257.85045 194.38061 257.13672 195.49906 256.21875 196.64062 C 255.30078 197.7822 254.11352 198.87804 252.68555 199.8457 C 249.8296 201.78102 245.93257 203.22238 241.60742 202.61914 C 237.27746 202.01798 233.73183 199.59326 231.23438 196.9707 C 229.9854 195.65916 228.99132 194.28801 228.28711 192.92773 C 227.58487 191.57124 227.03968 190.28571 227.2793 188.56055 C 227.27943 188.55921 227.27916 188.5576 227.2793 188.55664 C 227.27984 188.55264 227.27876 188.55086 227.2793 188.54688 L 227.61719 186.16406 L 228.39062 186.16406 C 228.78709 185.67144 229.22396 185.21246 229.70312 184.88086 C 230.83836 184.09526 232.1323 183.62008 233.57031 183.2793 C 235.00834 182.93852 236.60317 182.74472 238.3125 182.70312 C 238.73983 182.69272 239.17449 182.69273 239.61523 182.70117 z M 463.66406 364.32617 C 463.64673 364.33231 463.62462 364.34294 463.60742 364.34961 C 459.9616 365.6347 456.96908 366.16925 454.46094 367.29883 C 451.9528 368.4284 450.16333 369.66177 448.56055 372.59961 C 447.00529 375.45034 445.66247 380.47291 446.05469 389.06055 C 446.49223 389.40376 447.67457 390.12916 449.69727 390.75781 C 453.94437 392.07783 461.04131 392.88549 468.93164 392.79883 C 484.71132 392.62541 504.13368 388.93394 514.45898 384.14258 C 524.2877 379.578 532.65086 373.54213 537.73633 368.94531 C 503.28637 376.05546 483.80858 374.17659 471.88867 369.24219 C 468.46093 367.82323 465.85302 366.10719 463.66406 364.32617 z M 265.06055 366.66406 C 264.88516 366.65971 264.71709 366.66534 264.55273 366.67969 C 263.23735 366.79457 261.33099 367.21721 257.66992 371.31445 A 8.3108978 8.3108978 0 0 1 257.66406 371.32031 C 249.04398 380.94926 246.05669 387.01591 238.95117 392.67773 C 231.84565 398.33957 222.61247 401.3465 204.18555 405.14062 C 198.36032 406.34136 195.03161 407.6284 192.80273 408.67188 C 193.51033 409.24504 193.43699 409.35552 194.5293 409.95312 C 197.20584 411.41758 200.67675 412.73176 203.46094 413.42773 A 8.3108978 8.3108978 0 0 0 203.46289 413.42773 C 211.40672 415.4156 224.38676 417.70475 237.95898 415.38281 C 251.53121 413.06088 265.64722 406.56847 277.70312 389.6875 A 8.3108978 8.3108978 0 0 0 277.70508 389.68555 C 279.77594 386.7864 280.00823 382.46761 278.29688 377.84961 C 276.58549 373.23161 272.78142 369.24095 270.10352 368.13086 C 267.81861 367.18453 266.28829 366.69454 265.06055 366.66406 z " />
</svg>
