<?xml version="1.0" encoding="UTF-8" standalone="no"?>
<svg
   xmlns="http://www.w3.org/2000/svg"
   version="1.1"
   viewBox="0 0 256 247"
   fill="currentColor"
   height="1em"
   width="1em">
  <path
     transform="matrix(0.10240464,0,0,0.10240464,-0.00580431,0)"
     d="M 893.07812 1.484375 C 868.20989 1.5743978 846.43478 4.133459 829.59961 7.6171875 C 710.66946 45.506092 714.40011 122.46546 579.50391 221.86523 C 445.39866 298.45356 378.04828 239.80438 280.36719 319.20508 C 182.88137 398.0101 250.9044 578.92933 210.01758 614.11328 C 169.43348 684.45189 43.551695 747.11538 20.632812 835.95898 C 1.6883613 949.58664 72.035034 1030.7544 69.330078 1128.1523 C 77.45471 1209.3108 -11.466218 1255.2061 1.3066406 1320.9941 C 39.576388 1428.46 113.33361 1493.1459 148.10742 1522.959 C 156.07581 1528.5837 164.49212 1542.4196 162.97852 1534.3535 L 162.98828 1534.3535 C 143.12348 1428.7375 134.49295 1323.707 136.9668 1221.2891 C 162.29927 1080.0565 221.35606 949.43376 310.34961 846.09961 C 496.07167 630.4499 816.37054 542.04952 1205.4648 728.99414 L 1302.1445 775.43555 C 1424.1939 854.28831 1510.9865 895.27266 1585.0234 922.55664 C 1897.686 996.25411 2173.1633 954.00856 2190.4551 838.66406 C 2251.0676 642.43278 1914.4909 238.046 1411.2715 132.5332 C 1329.3769 116.55305 1250.579 109.14497 1175.0957 109.33594 C 1164.3951 109.36301 1153.764 109.55111 1143.1973 109.88086 C 1145.6257 109.5956 1148.0551 109.31118 1150.4922 109.03711 C 1070.1199 23.164543 967.6829 1.2143067 893.07812 1.484375 z M 864.66406 297.52539 C 899.72594 298.58452 1178.5145 389.78343 1178.7109 389.73438 L 1165.0391 417.07812 C 1165.0391 417.07812 868.10226 322.4863 862.88281 328.88867 C 853.59559 340.28075 600.5328 358.81919 783.10156 556.25195 C 787.33653 560.83171 1093.4988 535.02063 1095.4629 535.4043 L 1072.2617 569.65625 C 1071.8779 569.22941 782.5527 599.91978 768.97852 584.57031 C 683.11479 487.47705 599.92352 366.68087 862.04883 297.71094 C 862.65509 297.55142 863.53303 297.49123 864.66406 297.52539 z M 1545.6504 488.73828 A 51.413674 51.413674 0 0 1 1545.6504 591.56445 L 1545.6406 591.56445 A 51.413674 51.413674 0 0 1 1545.6504 488.73828 z M 2234.6523 639.35547 C 2364.5097 996.48766 2196.5205 1392.8468 1830.6289 1674.6602 C 1978.8643 1690.724 2119.5801 1655.1496 2249.9746 1548.8555 C 2052.9718 1768.6015 1806.6355 1879.0853 1524.002 1909.1426 C 1658.9567 2023.8736 1789.0974 2075.5499 1913.5938 2053.4316 C 1825.1491 2077.8384 1740.372 2089.13 1657.2754 2086.5605 C 1657.2754 2086.4057 1657.2773 2086.2525 1657.2773 2086.0977 C 1653.5701 2085.4056 1652.1571 2085.6262 1651.9512 2086.375 C 1613.8841 2084.925 1576.1614 2080.5562 1538.5918 2073.1953 C 1472.0637 2055.5571 1404.3635 2036.8418 1326.2305 1999.0566 C 1203.2118 1937.2898 1077.9675 1842.1334 943.84375 1711.0566 C 942.76347 1709.9993 941.69519 1708.9626 940.61133 1707.8984 C 937.35494 1704.7054 934.08535 1701.4619 930.81836 1698.2266 C 928.95287 1696.3783 927.10651 1694.5655 925.23047 1692.6973 C 924.36533 1697.1282 923.75954 1701.6744 923.40234 1706.3262 C 923.40209 1706.3294 923.40259 1706.3327 923.40234 1706.3359 C 923.28364 1707.8834 923.1912 1709.4415 923.12695 1711.0117 C 923.12682 1711.015 923.12709 1711.0182 923.12695 1711.0215 C 923.06271 1712.5944 923.02612 1714.1785 923.01562 1715.7734 C 923.01511 1715.8511 923.01797 1715.9301 923.01758 1716.0078 C 922.99657 1720.2532 923.17579 1724.5798 923.52344 1728.9707 C 923.56148 1729.4511 923.58656 1729.9261 923.62891 1730.4082 C 923.62914 1730.4108 923.62868 1730.4134 923.62891 1730.416 C 923.77431 1732.0706 923.9451 1733.7348 924.14062 1735.4082 C 924.14093 1735.4108 924.14032 1735.4134 924.14062 1735.416 C 924.33623 1737.0895 924.55787 1738.7734 924.80273 1740.4648 C 924.80301 1740.4668 924.80245 1740.4688 924.80273 1740.4707 C 925.04775 1742.1629 925.31789 1743.8629 925.61133 1745.5723 C 925.61166 1745.5742 925.611 1745.5762 925.61133 1745.5781 C 926.10902 1748.4773 926.69259 1751.4059 927.32617 1754.3516 C 927.44008 1754.8811 927.53999 1755.4066 927.6582 1755.9375 C 927.65865 1755.9395 927.65971 1755.9413 927.66016 1755.9434 C 927.77473 1756.4579 927.90484 1756.9783 928.02344 1757.4941 C 928.61836 1760.082 929.26254 1762.6853 929.95703 1765.3047 C 930.0617 1765.6994 930.15482 1766.0909 930.26172 1766.4863 C 930.26226 1766.4883 930.26313 1766.4902 930.26367 1766.4922 C 930.32138 1766.7057 930.38696 1766.9211 930.44531 1767.1348 C 933.71381 1779.1029 937.99272 1791.3781 943.15039 1803.8379 C 943.2511 1804.0812 943.34588 1804.323 943.44727 1804.5664 C 943.44783 1804.5678 943.44866 1804.569 943.44922 1804.5703 C 943.52897 1804.7618 943.61319 1804.9549 943.69336 1805.1465 C 949.80051 1819.7417 957.09891 1834.5814 965.37891 1849.4688 C 965.37989 1849.4705 965.37987 1849.4728 965.38086 1849.4746 C 993.69652 1900.3844 1033.4519 1951.8363 1075.9961 1995.873 C 1075.9964 1995.8734 1075.9958 1995.8747 1075.9961 1995.875 C 1085.4504 2005.661 1095.0429 2015.0808 1104.6777 2024.0469 C 1106.2835 2025.5414 1107.8903 2027.0233 1109.498 2028.4922 C 512.4744 1769.6661 460.13266 963.37381 1188.1367 765.04297 C 433.48347 402.46177 6.7556092 1106.9616 216.4043 1684.3574 C 421.54147 2129.0638 968.1776 2471.4301 1567.291 2396.1406 C 1858.2933 2360.4977 2292.8635 2159.8534 2470.3945 1684.3574 C 2345.2733 1796.6374 2121.6204 1894.4262 2021.8203 1901.9258 C 2359.598 1733.1151 2541.9527 1446.2635 2490.7637 1054.2109 C 2420.7961 1220.7854 2328.4772 1348.7188 2213.0039 1436.5762 C 2458.3053 1054.2009 2416.2164 856.56241 2234.6523 639.35547 z "
     />
</svg>
