<?xml version="1.0" encoding="UTF-8" standalone="no"?>
<svg
   xmlns="http://www.w3.org/2000/svg"
   id="svg4823"
   version="1.1"
   preserveAspectRatio="xMidYMid meet"
   fill="currentColor"
   viewBox="0 0 350 550"
   height="1em"
   width="1em">
  <g
     cx="200"
     cy="70"
     rx="85"
     ry="55"
     >
    <path d="M 64.164062,83.669922 C 50.50412,85.305117 40.740237,86.342007 37.5,86.675781 V 191.625 c 143.7904,-14.85676 216.51403,-34.37101 252.01758,-49.75586 4.90165,-2.12405 9.07525,-4.16274 12.66015,-6.09375 C 270.99157,120.07396 204.69701,99.658441 64.164062,83.669922 Z M 316.95703,144.53906 c -5.51757,3.49458 -12.51392,7.20883 -21.47461,11.0918 -35.79711,15.51208 -103.23415,33.70846 -231.644529,48.24609 22.319907,2.71095 53.452969,6.82624 87.017579,12.32422 9.17043,-1.51154 18.48265,-3.12123 27.79297,-4.82812 37.30174,-6.83866 74.57376,-15.25891 101.99804,-24.85743 13.71215,-4.79925 24.96736,-9.94959 32.23243,-14.91406 C 320.14398,166.6371 322.5,162.5 322.5,160 a 7.50075,7.50075 0 0 1 0.002,-0.0996 7.50075,7.50075 0 0 1 0.39649,-2.20703 7.50075,7.50075 0 0 1 0.27539,-0.69727 7.50075,7.50075 0 0 1 2.94922,-3.31054 7.50075,7.50075 0 0 1 0.56054,-0.30078 c -1.91693,-2.42398 -4.94505,-5.41915 -9.72656,-8.84571 z M 322.5,183.08008 c -0.40611,0.29005 -0.74482,0.62048 -1.16016,0.9043 -9.14118,6.24646 -21.32347,11.643 -35.73632,16.6875 -25.69642,8.99373 -58.47061,16.67989 -91.98829,23.14062 56.1111,10.87647 109.68276,25.24111 128.88477,42.60742 z" />
    <path d="M 64.164062,243.66992 C 50.50412,245.30512 40.740237,246.34201 37.5,246.67578 V 351.625 c 143.7904,-14.85676 216.51403,-34.37101 252.01758,-49.75586 4.90165,-2.12405 9.07525,-4.16274 12.66015,-6.09375 -31.18616,-15.70143 -97.48072,-36.11695 -238.013668,-52.10547 z m 252.791018,60.86914 c -5.51736,3.49432 -12.51273,7.20916 -21.47266,11.0918 -35.79514,15.51123 -103.22639,33.7069 -231.623045,48.24414 22.337396,2.71586 53.390595,6.82855 86.962895,12.33203 9.18109,-1.51312 18.50467,-3.12504 27.82617,-4.83398 37.30174,-6.83866 74.57376,-15.25892 101.99804,-24.85743 13.71215,-4.79924 24.96736,-9.94959 32.23243,-14.91406 C 320.14398,326.6371 322.5,322.5 322.5,320 a 7.50075,7.50075 0 0 1 0.002,-0.0996 7.50075,7.50075 0 0 1 0.39649,-2.20703 7.50075,7.50075 0 0 1 0.27539,-0.69727 7.50075,7.50075 0 0 1 2.94922,-3.31054 7.50075,7.50075 0 0 1 0.5664,-0.30469 c -1.91787,-2.42231 -4.95409,-5.41742 -9.73437,-8.8418 z M 322.5,343.08008 c -0.40611,0.29005 -0.74482,0.62048 -1.16016,0.9043 -9.14118,6.24647 -21.32347,11.64299 -35.73632,16.6875 -25.71044,8.99864 -58.5062,16.68944 -92.04297,23.15234 56.14604,10.88645 109.73903,25.24736 128.93945,42.60937 z" />
  </g>
  <path d="m 30,240 c 0,0 300,-30 300,-80 v 120 c 0,0 0,50 -300,80 v 120 z" />
  <path d="m 30,400 c 0,0 300,-30 300,-80 v 120 c 0,0 0,50 -300,80 v 120 z" />
  <path d="M 30,80 C 30,80 330,50 330,0 v 120 c 0,0 0,50 -300,80 v 120 z" />
</svg>
