<?xml version="1.0" encoding="UTF-8" standalone="no"?>
<svg
   xmlns="http://www.w3.org/2000/svg"
   version="1.1"
   stroke="currentColor"
   fill="currentColor"
   height="1em"
   width="1em"
   viewBox="0 0 700 700">
      <path d="M 363.64844 10.054688 A 46.724621 46.342246 0 0 0 358.98633 10.060547 A 46.724621 46.342246 0 0 0 341.08008 14.591797 L 96.736328 131.3418 A 46.724621 46.342246 0 0 0 71.455078 162.7793 L 11.173828 425.0293 A 46.724621 46.342246 0 0 0 17.517578 460.56055 A 46.724621 46.342246 0 0 0 20.173828 464.24805 L 189.29883 674.5293 A 46.724621 46.342246 0 0 0 225.83008 691.9668 L 497.04883 691.9043 A 46.724621 46.342246 0 0 0 533.58008 674.49805 L 702.64258 464.18555 A 46.724621 46.342246 0 0 0 711.67383 424.9668 L 651.29883 162.7168 A 46.724621 46.342246 0 0 0 626.01758 131.2793 L 381.64258 14.591797 A 46.724621 46.342246 0 0 0 363.64844 10.054688 z M 361.4082 99.306641 C 369.48516 99.305821 376.03224 106.58255 376.0332 115.55664 C 376.0379 116.82888 376.10825 118.53626 376.06445 119.71289 C 375.87183 124.88889 374.74355 128.85038 374.06445 133.61914 C 372.83417 143.8258 371.77203 152.2865 372.4082 160.15039 C 372.98603 164.08603 375.28574 165.64124 377.18945 167.46289 C 377.23275 168.52297 377.40314 172.04542 377.5332 173.99414 C 424.03459 178.12498 467.22065 199.38982 498.93945 232.65039 L 504.50195 228.68164 C 506.38704 228.79267 510.54094 229.36395 513.37695 227.71289 C 519.92163 223.30691 525.88321 217.19509 533.0957 209.86914 C 536.4005 206.36478 538.82545 203.02835 542.75195 199.65039 C 543.64842 198.87916 545.00339 197.84749 546.00195 197.05664 C 553.01733 191.46031 562.77762 192.05506 567.81445 198.36914 C 572.85128 204.68322 571.23608 214.33531 564.2207 219.93164 C 563.23085 220.7278 561.9442 221.82963 561.00195 222.52539 C 556.83524 225.60216 552.99737 227.17662 548.8457 229.61914 C 540.09899 235.02141 532.84704 239.4997 527.0957 244.90039 C 524.3791 247.80611 524.58286 250.55747 524.3457 253.18164 C 523.53439 253.92698 520.67325 256.4606 519.1582 257.83789 C 531.76408 276.6008 541.21606 297.89693 546.56445 321.18164 C 551.8635 344.25155 552.68921 367.30847 549.62695 389.46289 L 555.5332 391.18164 C 556.59472 392.68415 558.77744 396.33511 561.8457 397.52539 C 569.37095 399.8952 577.83989 400.76651 588.06445 401.83789 C 592.86478 402.23679 597.00658 401.99911 602.0957 402.96289 C 603.31345 403.19351 605.09177 403.67776 606.3457 403.96289 C 614.9664 406.04338 620.50144 413.96843 618.7207 421.77539 C 616.93954 429.58418 608.51806 434.32984 599.8457 432.46289 C 599.7831 432.44859 599.69225 432.44624 599.62695 432.43164 C 599.529 432.40934 599.4429 432.36169 599.3457 432.33789 C 598.13683 432.07259 596.62194 431.80848 595.56445 431.52539 C 590.56105 430.18602 586.9376 428.18595 582.43945 426.46289 C 572.76233 422.99262 564.74777 420.09226 556.93945 418.96289 C 552.97389 418.65062 550.95149 420.54344 548.75195 421.99414 C 547.68349 421.77975 544.39435 421.19781 542.50195 420.90039 C 528.48801 464.9416 498.64685 503.07473 458.18945 526.96289 C 458.88814 528.64905 460.07317 532.23437 460.62695 532.86914 C 459.70223 535.3364 458.31484 537.69757 459.50195 541.49414 C 462.34102 548.85519 466.93349 556.05097 472.4707 564.71289 C 475.15175 568.71466 477.89499 571.78938 480.31445 576.36914 C 480.8934 577.465 481.66181 579.1485 482.2207 580.30664 C 485.98169 588.34799 483.22145 597.60999 476.00195 601.08789 C 468.72532 604.59331 459.67802 600.89148 455.7832 592.80664 C 455.2267 591.6615 454.44304 590.13859 453.9707 589.05664 C 451.89832 584.30972 451.17808 580.2415 449.7207 575.65039 C 446.40035 565.9208 443.67484 557.86562 439.68945 551.05664 C 437.46114 547.76153 434.72629 547.34057 432.2207 546.52539 C 431.75683 545.72609 430.02668 542.55172 429.0957 540.90039 C 421.01639 543.95344 412.65892 546.49732 404.00195 548.46289 C 366.05361 557.0791 328.06519 553.58344 294.12695 540.55664 L 290.81445 546.55664 C 288.34884 547.21678 285.9704 547.88672 284.51172 549.62695 C 279.18481 555.98203 277.05907 566.18025 273.18945 575.90039 C 271.73231 580.49158 271.04283 584.55962 268.9707 589.30664 C 268.50173 590.38102 267.71413 591.88284 267.1582 593.02539 C 267.1542 593.03409 267.1622 593.04764 267.1582 593.05664 C 267.1527 593.06804 267.13295 593.07649 267.12695 593.08789 C 263.22392 601.14655 254.2052 604.83577 246.93945 601.33789 C 239.71906 597.86184 236.96186 588.599 240.7207 580.55664 C 241.27952 579.39846 242.0168 577.71503 242.5957 576.61914 C 245.01492 572.03925 247.7586 568.93356 250.43945 564.93164 C 255.9762 556.26943 260.8371 548.49987 263.67578 541.13867 C 264.38897 538.69405 263.33437 535.34456 262.37695 532.86914 L 265.0332 526.49414 C 226.10361 503.42666 195.35963 466.66446 180.68945 421.18164 L 174.31445 422.27539 C 172.60531 421.3188 169.16938 419.05122 165.9082 419.30664 C 158.09993 420.43642 150.08514 423.33587 140.4082 426.80664 C 135.91014 428.52993 132.28654 430.49826 127.2832 431.83789 C 126.22572 432.12104 124.7108 432.41628 123.50195 432.68164 C 123.40479 432.70544 123.3186 432.75299 123.2207 432.77539 C 123.15545 432.78989 123.06455 432.79234 123.00195 432.80664 C 114.33009 434.67591 105.91011 429.92747 104.12695 422.11914 C 102.34421 414.31264 107.88181 406.38943 116.50195 404.30664 C 116.56614 404.29204 116.6539 404.25964 116.7207 404.24414 C 116.7633 404.23454 116.8031 404.22189 116.8457 404.21289 C 118.07123 403.92541 119.63187 403.51882 120.75195 403.30664 C 125.84102 402.34259 129.98289 402.58079 134.7832 402.18164 C 145.00771 401.10973 153.47682 400.23935 161.00195 397.86914 C 163.38784 396.89013 165.6689 393.61 167.2832 391.52539 L 173.4082 389.74414 C 166.54504 342.2161 178.15853 295.57032 203.25195 257.80664 L 198.56445 253.61914 C 198.26553 251.79456 197.87297 247.57581 195.62695 245.18164 C 189.87532 239.78125 182.62395 235.3022 173.87695 229.90039 C 169.72515 227.45809 165.91882 225.88319 161.75195 222.80664 C 160.86566 222.15227 159.68492 221.15076 158.7207 220.36914 C 158.64897 220.31367 158.57315 220.26959 158.50195 220.21289 C 151.48508 214.61844 149.87299 204.96577 154.9082 198.65039 C 157.74051 195.09799 162.06856 193.3402 166.56445 193.49414 C 170.06125 193.61387 173.68207 194.89032 176.75195 197.33789 C 177.74937 198.12709 179.11023 199.16457 180.00195 199.93164 C 183.92863 203.30938 186.32197 206.6462 189.62695 210.15039 C 196.83983 217.47596 202.80079 223.55726 209.3457 227.96289 C 212.78299 229.96493 215.42203 229.15926 218.0332 228.80664 C 218.87347 229.4275 221.69923 231.45471 223.31445 232.55664 C 248.20687 206.14596 280.90234 186.58507 318.87695 177.96289 C 327.7021 175.95913 336.53763 174.62756 345.31445 173.90039 L 345.6582 167.71289 C 347.60532 165.8278 349.78951 163.11579 350.4082 160.15039 C 351.04437 152.2865 350.01348 143.8258 348.7832 133.61914 C 348.1041 128.85038 346.97582 124.88889 346.7832 119.71289 C 346.7436 118.65125 346.80255 117.18225 346.81445 115.96289 C 346.81145 115.82598 346.78321 115.69437 346.7832 115.55664 C 346.78224 106.58255 353.33124 99.307461 361.4082 99.306641 z M 343.0957 212.74414 C 337.91161 213.37254 332.70794 214.24961 327.50195 215.43164 C 299.00236 221.9025 274.2731 235.95174 254.93945 254.96289 L 317.8457 299.55664 L 317.9707 299.49414 C 320.10151 301.0506 322.72364 301.96289 325.56445 301.96289 C 332.49949 301.96289 338.14811 296.48249 338.43945 289.61914 L 338.75195 289.46289 L 343.0957 212.74414 z M 379.75195 212.74414 L 384.0957 289.33789 L 384.1582 289.36914 C 384.26998 292.0055 385.19938 294.61693 386.9707 296.83789 C 391.29477 302.25928 399.11075 303.26458 404.6582 299.21289 L 404.87695 299.30664 L 467.37695 254.99414 C 443.79696 231.90296 413.02542 216.83646 379.75195 212.74414 z M 232.12695 283.61914 C 215.0805 311.38925 207.00467 344.69772 210.75195 378.96289 L 284.37695 357.71289 L 284.43945 357.46289 C 286.98487 356.76738 289.35575 355.27769 291.12695 353.05664 C 295.45083 347.63458 294.68632 339.81361 289.50195 335.30664 L 289.56445 334.99414 L 232.12695 283.61914 z M 490.2832 283.65039 L 433.1582 334.77539 L 433.18945 334.93164 C 431.19792 336.66275 429.72773 339.00577 429.0957 341.77539 C 427.55302 348.53627 431.62545 355.27685 438.25195 357.08789 L 438.31445 357.40039 L 512.31445 378.71289 C 513.88194 362.74861 512.92801 346.22992 509.12695 329.68164 C 505.27975 312.93253 498.8173 297.48295 490.2832 283.65039 z M 349.62695 338.96289 L 334.9707 357.21289 L 340.2207 380.02539 L 361.4082 390.21289 L 382.5332 380.05664 L 387.7832 357.24414 L 373.1582 338.96289 L 349.62695 338.96289 z M 425.06445 401.52539 C 423.39784 401.60963 421.7266 402.03623 420.12695 402.80664 C 413.87895 405.81583 411.16134 413.2154 413.87695 419.52539 L 413.7832 419.65039 L 443.3457 491.05664 C 471.84164 472.90307 493.16895 445.77599 504.31445 414.46289 L 428.1582 401.58789 L 428.0332 401.74414 C 427.06003 401.56499 426.06442 401.47489 425.06445 401.52539 z M 297.1582 401.83789 C 296.32795 401.82624 295.47146 401.90123 294.62695 402.05664 L 294.50195 401.90039 L 219.00195 414.71289 C 230.65393 446.95131 252.43604 473.22679 279.7832 490.77539 L 309.0332 420.08789 L 308.81445 419.80664 C 309.8577 417.38289 310.16539 414.63872 309.5332 411.86914 C 308.18282 405.95314 302.96994 401.91939 297.1582 401.83789 z M 360.93945 432.80664 C 356.48567 432.97027 352.26087 435.45473 350.0332 439.61914 L 349.9707 439.61914 L 312.8457 506.74414 C 338.53833 515.49881 366.91242 517.45704 395.37695 510.99414 C 400.45586 509.84097 405.42166 508.45712 410.25195 506.83789 L 373.0332 439.58789 L 372.75195 439.58789 C 371.50743 437.26108 369.53021 435.32042 366.9707 434.08789 C 365.0181 433.14762 362.9639 432.73224 360.93945 432.80664 z " />
</svg>
