<?xml version="1.0" encoding="UTF-8" standalone="no"?>
<svg
   xmlns="http://www.w3.org/2000/svg"
   version="1.1"
   preserveAspectRatio="xMinYMin meet"
   fill="currentColor"
   viewBox="0 0 256 252"
   height="1em"
   width="1em">
  <path
     transform="scale(0.1024)"
     d="M 145.32422 0.001953125 C 87.416552 0.094220025 37.158585 22.890625 10.957031 87.148438 C -34.921875 197.57812 78.925781 306.30859 117.98828 362.39258 C 146.89453 401.46484 184.25781 445.63477 204.64844 489.81445 C 216.54297 518.68164 219.93164 549.28711 231.82617 579.86328 C 259.02344 654.59961 284.49219 737.87109 320.18555 807.53906 C 338.87695 843.21289 359.25781 880.58594 383.04688 912.87109 C 396.64062 931.55273 420.41992 940.05859 425.52734 970.63477 C 401.74805 1004.6191 400.03906 1055.5957 386.43555 1098.0664 C 325.27344 1290.0586 349.07227 1527.9199 435.71289 1668.9355 C 462.89062 1711.3965 527.46094 1804.873 614.11133 1769.1797 C 690.57617 1738.6035 673.58398 1641.7578 695.6543 1556.8066 C 700.77148 1536.3965 697.37305 1522.8223 707.55859 1509.2285 L 707.55859 1512.6367 C 731.34766 1560.1953 755.12695 1606.084 777.2168 1653.6523 C 829.89258 1736.8945 921.63086 1823.5547 998.08594 1881.3281 C 1038.877 1911.8945 1071.1523 1964.5703 1122.1289 1983.2617 L 1122.1289 1978.1543 L 1118.7207 1978.1543 C 1108.5254 1962.8613 1093.2324 1956.0742 1079.6484 1944.1699 C 1049.0723 1913.6035 1015.0781 1876.2207 991.29883 1842.2363 C 919.95117 1747.0801 857.07031 1641.748 801.00586 1533.0078 C 773.82812 1480.3516 750.0293 1422.5781 727.94922 1369.9121 C 717.74414 1349.502 717.74414 1318.9355 700.76172 1308.75 C 675.27344 1346.123 637.90039 1378.4082 619.20898 1424.2773 C 586.94336 1497.334 583.53516 1587.3828 571.64062 1680.8203 C 564.84375 1682.5391 568.23242 1680.8203 564.83398 1684.2383 C 510.47852 1670.625 491.78711 1614.5703 471.38672 1566.9922 C 420.41016 1446.3672 411.91406 1252.6758 456.10352 1113.3594 C 467.99805 1077.6758 518.97461 965.54688 498.58398 931.5625 C 488.38867 899.27734 454.39453 880.58594 435.71289 855.10742 C 413.63281 822.82227 389.83398 782.06055 374.55078 746.36719 C 333.76953 651.2207 313.37891 545.87891 269.20898 450.73242 C 248.81836 406.55273 213.1543 360.69336 184.25781 319.91211 C 151.98242 274.04297 116.29883 241.74805 90.810547 187.38281 C 82.324219 168.70117 70.419922 138.11523 84.013672 117.72461 C 87.412109 104.13086 94.199219 99.042969 107.80273 95.644531 C 129.89258 76.943359 192.76367 100.73242 214.83398 110.92773 C 277.70508 136.39648 330.37109 160.20508 383.04688 195.87891 C 406.82617 212.87109 432.31445 245.15625 462.89062 253.65234 L 498.57422 253.65234 C 552.94922 265.53711 614.10156 257.05078 665.07812 272.33398 C 755.13672 301.21094 836.67969 343.69141 909.74609 389.57031 C 1132.3242 530.58594 1315.8008 731.07422 1439.8438 970.63477 C 1460.2344 1009.6973 1468.7207 1045.4004 1487.4121 1086.1621 C 1523.1055 1169.4238 1567.2754 1254.375 1602.9395 1335.9277 C 1638.623 1415.7715 1672.5977 1497.334 1723.5742 1563.6035 C 1749.0625 1599.2676 1850.9961 1617.9688 1896.875 1636.6602 C 1930.8594 1651.9434 1983.5352 1665.5469 2014.1113 1684.2285 C 2071.875 1719.8926 2129.6387 1760.6934 2184.0137 1799.7559 C 2211.2012 1820.1465 2296.1426 1862.627 2301.25 1896.6016 C 2165.332 1893.2129 2059.9902 1906.8066 1971.6406 1944.1797 C 1946.1523 1954.3652 1905.3711 1954.375 1901.9727 1986.6602 C 1915.5664 2000.2539 1917.2656 2022.3438 1929.1602 2041.0254 C 1949.5703 2075 1985.2246 2120.8789 2017.5098 2144.6777 C 2053.1836 2171.8555 2088.877 2199.0332 2126.2402 2222.8223 C 2192.5098 2263.6035 2267.2754 2287.3828 2331.8359 2328.1641 C 2369.2285 2351.9336 2406.582 2382.5391 2443.9648 2408.0176 C 2462.6562 2421.5918 2474.541 2443.7012 2498.3398 2452.1875 L 2498.3398 2447.0996 C 2486.4355 2431.7969 2483.0371 2409.7168 2471.1523 2392.7246 C 2454.1797 2375.7324 2437.168 2360.4395 2420.1758 2343.4473 C 2370.9082 2277.1973 2309.7461 2219.4238 2243.4863 2171.8555 C 2189.1211 2134.4727 2070.1758 2083.5059 2048.0957 2020.6348 C 2048.0957 2020.6348 2046.3867 2018.9453 2044.6973 2017.2461 C 2082.0703 2013.8477 2126.2402 2000.2539 2161.9336 1990.0586 C 2219.6973 1974.7559 2272.3633 1978.1641 2331.8359 1962.8711 C 2359.0137 1956.0742 2386.2012 1947.5781 2413.3789 1939.082 L 2413.3789 1923.7988 C 2382.8125 1893.2129 2360.7227 1852.4414 2328.4375 1823.5547 C 2241.7871 1748.7793 2146.6309 1675.7324 2048.0957 1614.5703 C 1995.4199 1580.5859 1927.4512 1558.4961 1871.3867 1529.6191 C 1851.0156 1519.4141 1817.0215 1514.3262 1805.1367 1497.334 C 1774.541 1459.9609 1757.5488 1410.6934 1735.4688 1366.5137 C 1686.2109 1273.0566 1638.623 1169.4238 1596.1426 1070.8887 C 1565.5762 1004.6191 1546.8848 938.34961 1509.502 877.19727 C 1334.502 588.35938 1144.209 413.35937 851.98242 241.74805 C 789.11133 206.07422 714.35547 190.78125 634.50195 172.09961 C 592.04102 170.39062 549.55078 167.00195 507.08008 165.29297 C 479.89258 153.39844 452.70508 121.12305 428.91602 105.83008 C 367.6432 67.119751 245.12254 -0.15706004 145.32422 0.001953125 z M 568.22266 420.13672 C 539.3457 420.13672 518.96484 423.55469 498.57422 428.64258 L 498.57422 432.04102 L 501.97266 432.04102 C 515.57617 459.22852 539.3457 477.91992 556.32812 501.69922 C 569.93164 528.87695 581.81641 556.07422 595.41992 583.26172 C 597.10938 581.55273 598.80859 579.86328 598.80859 579.86328 C 622.60742 562.86133 634.49219 535.68359 634.49219 494.90234 C 624.29688 483.01758 622.59766 471.12305 614.10156 459.22852 C 603.91602 442.22656 581.81641 433.74023 568.22266 420.13672 z "
     />
</svg>
